<mxfile host="app.diagrams.net" modified="2023-06-25T05:51:59.392Z" agent="Mozilla/5.0 (Windows NT 10.0; Win64; x64) AppleWebKit/537.36 (KHTML, like Gecko) Chrome/114.0.0.0 Safari/537.36 Edg/114.0.1823.55" etag="oHX1a3qICgN4S49QsWLA" version="21.5.0" type="github">
  <diagram name="Page-1" id="nuhZp7t7VHR0sZ8pSpN4">
    <mxGraphModel dx="1756" dy="538" grid="1" gridSize="10" guides="1" tooltips="1" connect="1" arrows="1" fold="1" page="1" pageScale="1" pageWidth="827" pageHeight="1169" math="0" shadow="0">
      <root>
        <mxCell id="0" />
        <mxCell id="1" parent="0" />
        <mxCell id="aBJx7xd7dUz5K_fsXDkm-21" style="edgeStyle=orthogonalEdgeStyle;rounded=0;orthogonalLoop=1;jettySize=auto;html=1;" parent="1" source="aBJx7xd7dUz5K_fsXDkm-1" edge="1">
          <mxGeometry relative="1" as="geometry">
            <mxPoint x="125" y="280" as="targetPoint" />
          </mxGeometry>
        </mxCell>
        <mxCell id="EtD2cg3Dwo9bxF_iSlmd-2" style="edgeStyle=orthogonalEdgeStyle;rounded=0;orthogonalLoop=1;jettySize=auto;html=1;entryX=1;entryY=0.5;entryDx=0;entryDy=0;" edge="1" parent="1" source="aBJx7xd7dUz5K_fsXDkm-1" target="aBJx7xd7dUz5K_fsXDkm-27">
          <mxGeometry relative="1" as="geometry" />
        </mxCell>
        <mxCell id="aBJx7xd7dUz5K_fsXDkm-1" value="Admin" style="shape=umlActor;verticalLabelPosition=bottom;verticalAlign=top;html=1;outlineConnect=0;" parent="1" vertex="1">
          <mxGeometry x="90" y="30" width="50" height="100" as="geometry" />
        </mxCell>
        <mxCell id="aBJx7xd7dUz5K_fsXDkm-2" value="" style="endArrow=classic;html=1;rounded=0;entryX=-0.002;entryY=0.391;entryDx=0;entryDy=0;entryPerimeter=0;" parent="1" target="aBJx7xd7dUz5K_fsXDkm-3" edge="1">
          <mxGeometry width="50" height="50" relative="1" as="geometry">
            <mxPoint x="140" y="110" as="sourcePoint" />
            <mxPoint x="210" y="110" as="targetPoint" />
          </mxGeometry>
        </mxCell>
        <mxCell id="aBJx7xd7dUz5K_fsXDkm-3" value="Category" style="whiteSpace=wrap;html=1;aspect=fixed;" parent="1" vertex="1">
          <mxGeometry x="250" y="80" width="80" height="80" as="geometry" />
        </mxCell>
        <mxCell id="aBJx7xd7dUz5K_fsXDkm-5" value="Edit" style="ellipse;whiteSpace=wrap;html=1;" parent="1" vertex="1">
          <mxGeometry x="374" y="40" width="50" height="30" as="geometry" />
        </mxCell>
        <mxCell id="aBJx7xd7dUz5K_fsXDkm-6" value="Create" style="ellipse;whiteSpace=wrap;html=1;" parent="1" vertex="1">
          <mxGeometry x="374" y="105" width="50" height="30" as="geometry" />
        </mxCell>
        <mxCell id="aBJx7xd7dUz5K_fsXDkm-7" value="Delete" style="ellipse;whiteSpace=wrap;html=1;" parent="1" vertex="1">
          <mxGeometry x="374" y="170" width="50" height="30" as="geometry" />
        </mxCell>
        <mxCell id="aBJx7xd7dUz5K_fsXDkm-8" value="" style="endArrow=classic;html=1;rounded=0;" parent="1" edge="1">
          <mxGeometry width="50" height="50" relative="1" as="geometry">
            <mxPoint x="330" y="105" as="sourcePoint" />
            <mxPoint x="380" y="55" as="targetPoint" />
          </mxGeometry>
        </mxCell>
        <mxCell id="aBJx7xd7dUz5K_fsXDkm-9" value="" style="endArrow=classic;html=1;rounded=0;" parent="1" target="aBJx7xd7dUz5K_fsXDkm-6" edge="1">
          <mxGeometry width="50" height="50" relative="1" as="geometry">
            <mxPoint x="330" y="135" as="sourcePoint" />
            <mxPoint x="380" y="85" as="targetPoint" />
          </mxGeometry>
        </mxCell>
        <mxCell id="aBJx7xd7dUz5K_fsXDkm-10" value="" style="endArrow=classic;html=1;rounded=0;entryX=0.364;entryY=0.102;entryDx=0;entryDy=0;entryPerimeter=0;" parent="1" target="aBJx7xd7dUz5K_fsXDkm-7" edge="1">
          <mxGeometry width="50" height="50" relative="1" as="geometry">
            <mxPoint x="330" y="160" as="sourcePoint" />
            <mxPoint x="380" y="110" as="targetPoint" />
          </mxGeometry>
        </mxCell>
        <mxCell id="aBJx7xd7dUz5K_fsXDkm-11" value="Product" style="whiteSpace=wrap;html=1;aspect=fixed;" parent="1" vertex="1">
          <mxGeometry x="230" y="260" width="80" height="80" as="geometry" />
        </mxCell>
        <mxCell id="aBJx7xd7dUz5K_fsXDkm-12" value="Edit" style="ellipse;whiteSpace=wrap;html=1;" parent="1" vertex="1">
          <mxGeometry x="354" y="220" width="50" height="30" as="geometry" />
        </mxCell>
        <mxCell id="aBJx7xd7dUz5K_fsXDkm-13" value="Create" style="ellipse;whiteSpace=wrap;html=1;" parent="1" vertex="1">
          <mxGeometry x="354" y="285" width="50" height="30" as="geometry" />
        </mxCell>
        <mxCell id="aBJx7xd7dUz5K_fsXDkm-14" value="Delete" style="ellipse;whiteSpace=wrap;html=1;" parent="1" vertex="1">
          <mxGeometry x="354" y="350" width="50" height="30" as="geometry" />
        </mxCell>
        <mxCell id="aBJx7xd7dUz5K_fsXDkm-15" value="" style="endArrow=classic;html=1;rounded=0;" parent="1" edge="1">
          <mxGeometry width="50" height="50" relative="1" as="geometry">
            <mxPoint x="310" y="285" as="sourcePoint" />
            <mxPoint x="360" y="235" as="targetPoint" />
          </mxGeometry>
        </mxCell>
        <mxCell id="aBJx7xd7dUz5K_fsXDkm-16" value="" style="endArrow=classic;html=1;rounded=0;" parent="1" target="aBJx7xd7dUz5K_fsXDkm-13" edge="1">
          <mxGeometry width="50" height="50" relative="1" as="geometry">
            <mxPoint x="310" y="315" as="sourcePoint" />
            <mxPoint x="360" y="265" as="targetPoint" />
          </mxGeometry>
        </mxCell>
        <mxCell id="aBJx7xd7dUz5K_fsXDkm-17" value="" style="endArrow=classic;html=1;rounded=0;entryX=0.364;entryY=0.102;entryDx=0;entryDy=0;entryPerimeter=0;" parent="1" target="aBJx7xd7dUz5K_fsXDkm-14" edge="1">
          <mxGeometry width="50" height="50" relative="1" as="geometry">
            <mxPoint x="310" y="340" as="sourcePoint" />
            <mxPoint x="360" y="290" as="targetPoint" />
          </mxGeometry>
        </mxCell>
        <mxCell id="aBJx7xd7dUz5K_fsXDkm-18" value="" style="endArrow=classic;html=1;rounded=0;entryX=0.422;entryY=-0.043;entryDx=0;entryDy=0;entryPerimeter=0;" parent="1" target="aBJx7xd7dUz5K_fsXDkm-11" edge="1">
          <mxGeometry width="50" height="50" relative="1" as="geometry">
            <mxPoint x="130" y="120" as="sourcePoint" />
            <mxPoint x="160" y="220" as="targetPoint" />
          </mxGeometry>
        </mxCell>
        <mxCell id="aBJx7xd7dUz5K_fsXDkm-24" value="Manage Admins" style="whiteSpace=wrap;html=1;aspect=fixed;" parent="1" vertex="1">
          <mxGeometry x="85" y="285" width="80" height="80" as="geometry" />
        </mxCell>
        <mxCell id="aBJx7xd7dUz5K_fsXDkm-25" value="Manage Discounts and Coupons" style="whiteSpace=wrap;html=1;aspect=fixed;" parent="1" vertex="1">
          <mxGeometry x="-130" y="250" width="80" height="80" as="geometry" />
        </mxCell>
        <mxCell id="aBJx7xd7dUz5K_fsXDkm-26" value="" style="endArrow=classic;html=1;rounded=0;" parent="1" target="aBJx7xd7dUz5K_fsXDkm-25" edge="1" source="aBJx7xd7dUz5K_fsXDkm-1">
          <mxGeometry width="50" height="50" relative="1" as="geometry">
            <mxPoint x="115" y="120" as="sourcePoint" />
            <mxPoint x="165" y="70" as="targetPoint" />
          </mxGeometry>
        </mxCell>
        <mxCell id="aBJx7xd7dUz5K_fsXDkm-27" value="Orders" style="whiteSpace=wrap;html=1;aspect=fixed;" parent="1" vertex="1">
          <mxGeometry x="-130" y="60" width="80" height="80" as="geometry" />
        </mxCell>
      </root>
    </mxGraphModel>
  </diagram>
</mxfile>
